<svg width="32" height="48" viewBox="0 0 32 48" fill="none" xmlns="http://www.w3.org/2000/svg">
<path d="M30.609 0H1.39158C0.815301 0 0.348145 0.467156 0.348145 1.04344V46.9566C0.348145 47.5328 0.815301 48 1.39158 48H30.609C31.1851 48 31.6524 47.5328 31.6524 46.9566V1.04344C31.6525 0.467156 31.1851 0 30.609 0ZM29.5655 45.913H2.43502V2.08697H29.5654V45.913H29.5655Z" fill="#2BE7CF"/>
<path d="M26.4349 28.139C27.0111 28.139 27.4783 27.6719 27.4783 27.0956V5.21745C27.4783 4.64117 27.0111 4.17401 26.4349 4.17401H5.56541C4.98913 4.17401 4.52197 4.64117 4.52197 5.21745V38.6087C4.52197 39.1849 4.98913 39.6521 5.56541 39.6521H26.435C27.0112 39.6521 27.4784 39.1849 27.4784 38.6087V33.4609C27.4784 32.8846 27.0112 32.4174 26.435 32.4174C25.8588 32.4174 25.3916 32.8846 25.3916 33.4609V37.5651H6.60885V6.26098H25.3915V27.0956C25.3915 27.6719 25.8587 28.139 26.4349 28.139Z" fill="#2BE7CF"/>
<path d="M16.0006 40.6956C14.8498 40.6956 13.9136 41.6318 13.9136 42.7826C13.9136 43.9334 14.8498 44.8696 16.0006 44.8696C17.1513 44.8696 18.0875 43.9334 18.0875 42.7826C18.0875 41.6318 17.1513 40.6956 16.0006 40.6956Z" fill="#2BE7CF"/>
<path d="M26.435 29.1913C25.8588 29.1913 25.3916 29.6584 25.3916 30.2347V30.2522C25.3916 30.8284 25.8588 31.2956 26.435 31.2956C27.0112 31.2956 27.4785 30.8284 27.4785 30.2522V30.2347C27.4786 29.6584 27.0113 29.1913 26.435 29.1913Z" fill="#2BE7CF"/>
</svg>
