<svg xmlns="http://www.w3.org/2000/svg" viewBox="0 0 241.87 241.71"><defs><style>.cls-1{font-size:32px;fill:#fff;font-family:RedHatDisplay-Bold, Red Hat Display;font-weight:700;}</style></defs><title>circle_1</title><g id="Camada_2" data-name="Camada 2"><g id="Camada_1-2" data-name="Camada 1"><text class="cls-1" transform="translate(125.58 26.58) rotate(8.98)">F</text><text class="cls-1" transform="matrix(0.89, 0.45, -0.45, 0.89, 153.73, 32.25)">R</text><text class="cls-1" transform="matrix(0.69, 0.73, -0.73, 0.69, 179.95, 46.79)">O</text><text class="cls-1" transform="translate(202.26 72.61) rotate(66.62)">N</text><text class="cls-1" transform="translate(213.53 102.75) rotate(85.4)">T</text><text class="cls-1" transform="translate(214.42 130.94) rotate(100.62)">-</text><text class="cls-1" transform="translate(209.38 153.56) rotate(116.66)">E</text><text class="cls-1" transform="matrix(-0.71, 0.7, -0.7, -0.71, 195.44, 178.91)">N</text><text class="cls-1" transform="translate(171.63 200.51) rotate(154.69)">D</text><text class="cls-1" transform="matrix(-0.98, 0.19, -0.19, -0.98, 141.76, 212.25)"> </text><text class="cls-1" transform="matrix(-1, -0.06, 0.06, -1, 126.9, 215.06)">D</text><text class="cls-1" transform="translate(95.25 211.55) rotate(-157.91)">E</text><text class="cls-1" transform="matrix(-0.76, -0.65, 0.65, -0.76, 68.78, 199.56)">V</text><text class="cls-1" transform="matrix(-0.51, -0.86, 0.86, -0.51, 45.79, 177.78)">E</text><text class="cls-1" transform="matrix(-0.23, -0.97, 0.97, -0.23, 32.04, 152.3)">L</text><text class="cls-1" transform="translate(26.44 126.17) rotate(-85.43)">O</text><text class="cls-1" transform="translate(30.91 92.32) rotate(-65.8)">P</text><text class="cls-1" transform="translate(44.51 65.49) rotate(-47.82)">E</text><text class="cls-1" transform="matrix(0.87, -0.5, 0.5, 0.87, 64.82, 44.88)">R</text></g></g></svg>