<svg width="48" height="48" viewBox="0 0 48 48" fill="none" xmlns="http://www.w3.org/2000/svg">
<path d="M43.5 0H4.5C2.01469 0 0 2.01469 0 4.5V43.5C0 45.9853 2.01469 48 4.5 48H43.5C45.9853 48 48 45.9853 48 43.5V4.5C48 2.01469 45.9853 0 43.5 0ZM45 43.5C45 44.3285 44.3285 45 43.5 45H4.5C3.67153 45 3 44.3285 3 43.5V15H45V43.5ZM45 12H3V4.5C3 3.67153 3.67153 3 4.5 3H43.5C44.3285 3 45 3.67153 45 4.5V12Z" fill="#2BE7CF"/>
<path d="M9 6H6V9H9V6Z" fill="#2BE7CF"/>
<path d="M15 6H12V9H15V6Z" fill="#2BE7CF"/>
<path d="M42 6H39V9H42V6Z" fill="#2BE7CF"/>
<path d="M15.4348 37.065L17.5497 34.95L12.6148 30L17.5497 25.065L15.4348 22.95L9.43475 28.95C8.85313 29.5351 8.85313 30.4799 9.43475 31.065L15.4348 37.065Z" fill="#2BE7CF"/>
<path d="M32.5649 37.065L38.5649 31.065C39.1466 30.4799 39.1466 29.5351 38.5649 28.95L32.5649 22.95L30.45 25.065L35.3849 30L30.45 34.935L32.5649 37.065Z" fill="#2BE7CF"/>
<path d="M28.3953 23.0724L25.6101 21.9579L19.6085 36.9563L22.3937 38.0708L28.3953 23.0724Z" fill="#2BE7CF"/>
</svg>
