<svg width="48" height="48" viewBox="0 0 48 48" fill="none" xmlns="http://www.w3.org/2000/svg">
<path d="M29.625 32.4375C29.1075 32.4375 28.6875 32.8575 28.6875 33.375C28.6875 33.8925 29.1075 34.3125 29.625 34.3125C30.1425 34.3125 30.5625 33.8925 30.5625 33.375C30.5625 32.8575 30.1425 32.4375 29.625 32.4375Z" fill="#2BE7CF"/>
<path d="M43.3125 0H4.6875C2.10278 0 0 2.10278 0 4.6875V33.375C0 35.9597 2.10278 38.0625 4.6875 38.0625H19.3125V42.375H18.375C17.1233 42.375 15.9467 42.8628 15.0608 43.7483C14.1753 44.6342 13.6875 45.8108 13.6875 47.0625C13.6875 47.5803 14.1072 48 14.625 48H33.375C33.8928 48 34.3125 47.5803 34.3125 47.0625C34.3125 44.4778 32.2097 42.375 29.625 42.375H28.6875V38.0625H43.3125C45.8972 38.0625 48 35.9597 48 33.375V4.6875C48 2.10278 45.8972 0 43.3125 0ZM4.6875 1.875H43.3125C44.8634 1.875 46.125 3.1366 46.125 4.6875V28.6875H41.8125V7.125C41.8125 6.60718 41.3928 6.1875 40.875 6.1875H33.375C32.8572 6.1875 32.4375 6.60718 32.4375 7.125V28.6875H27.7449C27.735 27.7178 27.7097 26.762 27.6694 25.8347C27.5054 22.0166 27.1315 19.459 26.937 18.334C28.8713 16.9098 29.3994 14.2701 28.2169 12.2194L24.9675 6.59143C24.7998 6.30139 24.4904 6.12268 24.1556 6.12268C23.8206 6.12268 23.5111 6.30139 23.3438 6.59143L20.0929 12.2197C18.9781 14.1533 19.3733 16.6578 21.1245 18.1359C20.9216 19.2576 20.5122 21.9067 20.3342 25.8329C20.2921 26.77 20.2654 27.7266 20.2551 28.6875H15.5625V14.625C15.5625 14.4763 15.5273 14.3408 15.4698 14.2203C15.4673 14.2156 15.4658 14.2104 15.4636 14.2057L11.7136 6.70569C11.5547 6.38818 11.2302 6.1875 10.875 6.1875C10.5198 6.1875 10.1953 6.38818 10.0364 6.70569L6.28638 14.2057C6.28418 14.2104 6.28271 14.2156 6.28052 14.2203C6.22192 14.3419 6.1875 14.4796 6.1875 14.625V28.6875H1.875V4.6875C1.875 3.1366 3.1366 1.875 4.6875 1.875ZM34.3125 28.6875V8.0625H39.9375V9.9375H39C38.4822 9.9375 38.0625 10.3572 38.0625 10.875C38.0625 11.3928 38.4822 11.8125 39 11.8125H39.9375V14.625H39C38.4822 14.625 38.0625 15.0447 38.0625 15.5625C38.0625 16.0803 38.4822 16.5 39 16.5H39.9375V19.3125H39C38.4822 19.3125 38.0625 19.7322 38.0625 20.25C38.0625 20.7678 38.4822 21.1875 39 21.1875H39.9375V24.9375H39C38.4822 24.9375 38.0625 25.3572 38.0625 25.875C38.0625 26.3928 38.4822 26.8125 39 26.8125H39.9375V28.6875H34.3125ZM24.1556 19.2477C24.4962 19.2477 24.8353 19.2085 25.1671 19.1353C25.3411 20.2504 25.5967 22.2235 25.7479 24.9375H22.2583C22.4169 22.2253 22.6846 20.2214 22.8695 19.0686C23.2848 19.1869 23.7173 19.2477 24.1556 19.2477ZM24.1556 17.3727C22.0129 17.3727 20.6312 15.0406 21.717 13.1569L24.1556 8.93518L26.5928 13.1565C27.6746 15.0326 26.3119 17.3727 24.1556 17.3727ZM22.1722 26.8125H25.8303C25.8501 27.4285 25.8636 28.0551 25.8702 28.6875H22.1301C22.1371 28.0591 22.1514 27.4325 22.1722 26.8125ZM11.8125 28.6875V15.5625H13.6875V28.6875H11.8125ZM8.0625 28.6875V15.5625H9.9375V28.6875H8.0625ZM8.64185 13.6875L10.875 9.22119L13.1082 13.6875H8.64185ZM32.2767 46.125H15.7222C15.8599 45.7343 16.0847 45.3761 16.3865 45.074C16.9182 44.5426 17.6243 44.25 18.375 44.25H29.625C30.8474 44.25 31.89 45.0337 32.2767 46.125ZM26.8125 42.375H21.1875V38.0625H26.8125V42.375ZM43.3125 36.1875H4.6875C3.1366 36.1875 1.875 34.9259 1.875 33.375V30.5625H46.125V33.375C46.125 34.9259 44.8634 36.1875 43.3125 36.1875Z" fill="#2BE7CF"/>
<path d="M25.875 32.4375H20.25C19.7322 32.4375 19.3125 32.8572 19.3125 33.375C19.3125 33.8928 19.7322 34.3125 20.25 34.3125H25.875C26.3928 34.3125 26.8125 33.8928 26.8125 33.375C26.8125 32.8572 26.3928 32.4375 25.875 32.4375Z" fill="#2BE7CF"/>
</svg>
